<svg xmlns="http://www.w3.org/2000/svg" fill="none" viewBox="0 0 761 761"><g clip-path="url(#kl)"><circle cx="380.2" cy="380" r="380" fill="#FFFCE"/><path fill="#241C17" fill-rule="evenodd" d="m348.4 171.6-9.8 1.2c-57.6 6.9-116.8 42.1-154.2 91.7a231.5 231.5 0 0 0-43 177 208.2 208.2 0 0 0 90.4 142 243 243 0 0 0 107.7 40.8c17 2.4 51.3 2.2 68.7-.4 27.2-4 56.3-13.6 76.4-25.1 47-27 79.7-68.6 94.7-120.3a253.4 253.4 0 0 0 .8-134.3c-3.8-13-10.5-26.6-13.8-28.3-3.4-1.8-5.4-1.6-7.5.7-4 4.2-4.4 15-1.7 38a380 380 0 0 1 .4 75.3c-6.4 41.2-23.1 79.6-46 105.7-47.4 54-129.2 72.6-208 47.1-24.6-8-49.6-21.2-66.6-35.4a178.7 178.7 0 0 1-47.4-60.8 194.9 194.9 0 0 1-15-117 192.5 192.5 0 0 1 103.2-142.7 191.5 191.5 0 0 1 77-22c25.1-2.2 56 2.2 81.2 11.5 9.6 3.5 28.5 13.1 36 18.2a621.7 621.7 0 0 1 69.1 58 99 99 0 0 0 13.8 12c2.3 0 4.7-1.7 5.6-3.8 2-5.3-5.8-23.6-17.4-41a184.3 184.3 0 0 0-76.8-66.3 209.3 209.3 0 0 0-98.8-22.2c-9.3 0-17.9.2-19 .4ZM375.6 296c-27 4.3-50.1 24-56.3 48a90.8 90.8 0 0 0-.5 27.2c.4 3.5.6 6.4.5 6.5-.1.1-3.7-.2-8-.7-6.9-.7-8.5-.6-11.7.6a13 13 0 0 0-6.4 18.2c2.2 4 7.3 6.5 16.3 8.3 4.2.9 7.9 1.8 8.1 2 .8.8-4.8 11-9.4 17-2.4 3.3-7.7 9.8-11.7 14.4-13.6 15.8-16.7 28.3-8.2 34 3.6 2.4 6.8 2.4 14.1 0a44 44 0 0 1 13-1.8c6.4 0 9.2.6 25 5.2a346.2 346.2 0 0 0 47.2 11.6 69 69 0 0 0 25.2-3c8-3 12.5-9.7 10.7-16-1.3-4.4-3.2-6.8-7.2-8.6-3.4-1.5-5-1.6-17.5-1l-13.7.6-15.6-3.6-28-6.6L329 445l3.8-5.5a114 114 0 0 0 14.3-30.1c0-.1 5 .7 11 1.9 17 3.1 30.4 2.5 35-1.6 6.4-6 5.4-17-2-21.2-4.5-2.6-8.6-3.4-27.3-5.2-14.1-1.4-15.4-1.7-15.8-3.3-1.1-4.7-2.3-19.8-2-23.8a35.8 35.8 0 0 1 19-26.3c19.9-10.6 40-4.9 54.3 15.4 3.6 5.1 7.5 7.5 12.2 7.5 6.7 0 12.3-6.4 12.3-14 0-7.5-9.5-21.9-19.6-29.8a68.8 68.8 0 0 0-23-11.8 85 85 0 0 0-25.6-1.3Z" clip-rule="evenodd"/><path fill="#FFE019" fill-rule="evenodd" d="M332 235.2a134 134 0 0 0-43.3 16.4c-2.6 1.6-6.6 3.9-9 5-7.8 4-30.6 25-37.6 34.7a152 152 0 0 1-8.4 10.4c-8.3 9.1-13.1 19-21.7 43.8a176 176 0 0 0-11 63 66 66 0 0 0 2.2 20.8c4 16.4 3.8 15.8 5.8 15.3a5 5 0 0 1 3.2.5c3.3 2.1 5.4-2.3 8.9-19.2a50 50 0 0 1 3.2-11.2c.7-.8 2-4.4 3.1-8.1 1-3.7 3.8-11 6-16.2 2.2-5.1 5.8-14.3 7.9-20.3l6.4-17.6c1.4-3.6 3-8.2 3.4-10.3 1-4.6 7.8-16.6 12.8-22.5 6.6-8 28.7-28 37-33.5a274 274 0 0 1 56.6-27.8 18 18 0 0 0 5.7-3.8c3.1-2.8 3.5-3.6 3.5-7 0-2.8-.6-4.6-2.5-7.1-2.7-3.8-4.4-4.6-10.1-5a552.8 552.8 0 0 1-9.3-.6 93 93 0 0 0-12.8.3ZM521.8 433c-.7 1.8-2 5.8-2.7 9-.7 3.3-1.7 6.4-2.1 7-.4.4-1.4 2.9-2.1 5.4-.8 2.5-2.3 6.2-3.3 8.3-1 2.1-4.2 9.9-7.1 17.3-8.1 21-8.5 21.6-19 31.8a156 156 0 0 1-15.6 13.3 179.2 179.2 0 0 1-32.8 16.1c-3.3 1-7 2.8-8.2 3.8-2.8 2.4-2.9 6.1-.2 9.2 2.2 2.6 5.5 3.2 16.9 3 14.1-.4 32.6-8.8 47.8-21.7a87 87 0 0 0 9.3-8.6c0-.3 2.7-3.6 5.9-7.2a79 79 0 0 0 15.5-29 99.6 99.6 0 0 0 7.2-31.4c.8-9.5.8-10-1.3-20.9-1.2-6-1.7-7.1-3.4-7.8-3-1.1-3.2-1-4.8 2.4Z" clip-rule="evenodd"/><path fill="#241C17" d="m125.8 161.8 11-14c6-7.6 11-13.5 11.2-12.9.1.6-.7 8.7-1.9 18l-2 16.9 10.7 10.7a85 85 0 0 1 10.1 11.3c-.3.2-7 .7-15 1l-14.5.5-11.5 12.5c-6.3 7-11.5 12.5-11.7 12.3-.1-.1.5-7.6 1.4-16.6L115 185l-10.5-11.2A105.8 105.8 0 0 1 94 161.5c0-.7 4-.8 15.9-.3l15.8.5ZM623.3 216l11.3-13.7c6.2-7.5 11.4-13.5 11.5-13.3.2.2-.4 8.2-1.3 18l-1.7 17.6L655 236a70.3 70.3 0 0 1 11.2 12.2c-.3.6-5.5.7-16 .3l-15.3-.6-12 12.7c-6.8 7-12.3 12.6-12.5 12.4-.2-.2.2-7.8.7-17l1-16.5-11.5-11.6a99.3 99.3 0 0 1-11.5-12.8c0-.9 1.2-1 6-.6l17.2 1 11 .6Zm-20.6 330.8c1.8 0 4.1-2.3 14.3-14.6 6.7-8 12.4-14.5 12.6-14.4.3.1-.3 8.9-1.2 19.4l-1.7 19.2 13 12.5c11 10.4 12.9 12.6 11.6 13.1-.9.3-8.7.4-17.4 0l-15.8-.5-13.4 13.5a290.4 290.4 0 0 1-13.6 13.3c-.2-.1.3-8.2 1-18l1-17.6-13-13.2a109 109 0 0 1-12.8-14c.3-.4 7.7-.3 16.8.3l18.6 1Z"/></g></svg>