<svg xmlns="http://www.w3.org/2000/svg" width="116" height="112" fill="none" viewBox="0 0 116 112"><path fill="#fff" fill-rule="evenodd" d="M61.057 12.601c.925.972 2.314 3.16 3.83 6.03 1.285 2.433 3.411 7.472 6.075 14.4 3.042 7.91 3.826 9.601 4.77 10.283 1.014.731 1.83.693 2.6-.122.323-.34.716-.908.874-1.26.167-.37.336-.563.402-.456.304.49 2.64 1.345 5.916 2.166 2.304.576 4.48.984 8.903 1.665 5.034.776 7.388 1.398 9.734 2.572 1.507.754 2.061 1.293 1.92 1.869-.551 2.249-3.192 5.641-8.097 10.4-3.54 3.436-6.12 5.681-10.31 8.976-1.869 1.47-3.758 3.057-4.198 3.527-1.403 1.5-1.765 2.871-1.128 4.269.407.894.907 1.225 1.85 1.225.93 0 1.58-.388 4.374-2.607 1.975-1.568 1.993-1.577 1.88-1.022-.56 2.756.106 6.252 3.268 17.146.873 3.01 1.708 6.177 1.855 7.037.269 1.581.333 4.558.114 5.32-.11.384-.189.412-1.046.384-2.472-.082-7.335-2.431-13.529-6.536-5.687-3.769-9.284-6.62-13.813-10.954-4.314-4.127-4.699-4.381-6.39-4.222-1.474.138-1.453.138-2.622.005-1.563-.178-2.07.146-5.944 3.79-4.922 4.632-7.888 7.032-13.117 10.617-6.466 4.433-12.492 7.414-14.987 7.414-.826 0-.953-.342-.953-2.553 0-2.533.346-4.151 2.433-11.365 1.813-6.262 2.92-10.93 3.155-13.29.101-1.014-.163-2.93-.535-3.891-.128-.33-.126-.33.363-.007 2.137 1.41 3.061 1.575 3.984.712a2.762 2.762 0 0 0 .767-2.806c-.314-1.065-2.047-2.654-5.758-5.278-8.756-6.191-16.403-13.275-17.995-16.671-.214-.457-.39-.915-.391-1.02-.002-.266 1.377-1.11 2.66-1.627 2.04-.821 4.748-1.422 9.403-2.087 8.05-1.15 13.154-2.36 14.685-3.484l.708-.519v.482c0 .826.504 2.22.951 2.634.566.523 1.276.513 1.816-.025.392-.39 1.867-3.318 2.84-5.633 3.167-7.543 8.475-16.345 13.97-23.167 1.585-1.97 2.998-3.288 3.522-3.288.15 0 .686.435 1.191.967Z" clip-rule="evenodd"/><path fill="#241C17" fill-rule="evenodd" d="M57.32.67c-1.895.755-4.186 2.865-6.678 6.15-1.467 1.936-6.481 9.542-8.692 13.187-1.658 2.733-3.984 7.38-5.256 10.5l-.927 2.275-1.052.032c-.578.018-3.417.506-6.308 1.083-2.892.578-7.426 1.376-10.076 1.772-9.893 1.481-13.407 2.576-15.812 4.926C-.017 43.073-.1 46.1 2.264 49.887c2.67 4.28 9.961 11.04 19.281 17.878 2.057 1.508 2.543 1.941 2.32 2.065-.495.277-.912 1.377-1.84 4.863-.856 3.212-2.704 9.69-4.476 15.695-2.83 9.587-2.911 14.916-.268 17.555 1.188 1.187 2.28 1.629 4.237 1.714 2.844.125 5.244-.586 10.28-3.046 7.294-3.563 17.507-11.05 24.347-17.849l3.03-3.012 2.84 2.835c6.676 6.66 17.007 14.257 24.307 17.873 5.009 2.48 7.739 3.318 10.437 3.202 1.284-.056 1.774-.16 2.57-.549 2.691-1.315 3.811-3.837 3.587-8.074-.179-3.378-.913-6.713-2.987-13.57-1.192-3.94-2.286-7.81-3.782-13.386-.491-1.83-1.047-3.536-1.236-3.794l-.344-.468 2.393-2.06c9.529-8.202 14.928-14.442 16.454-19.019.397-1.191.451-1.6.389-2.982-.064-1.409-.143-1.735-.662-2.703-.759-1.417-2.209-2.752-3.969-3.656-2.659-1.366-5.49-2.095-13.187-3.396-5.091-.86-7.364-1.313-12.642-2.513-1.494-.34-3.053-.619-3.464-.62-.61 0-.78-.074-.913-.395-.09-.216-1.504-3.793-3.142-7.948-4.318-10.958-5.994-14.562-8.572-18.432-1.427-2.143-3.669-4.338-5.196-5.087C60.498.243 58.711.116 57.321.67Zm3.413 6.62c.974 1.026 2.436 3.333 4.033 6.362 1.353 2.567 3.592 7.883 6.397 15.192 3.203 8.347 4.03 10.13 5.023 10.85 1.067.772 1.926.732 2.739-.129.34-.359.753-.957.92-1.329.175-.39.353-.593.423-.481.32.517 2.78 1.42 6.23 2.285 2.426.609 4.717 1.038 9.375 1.757 5.301.819 7.78 1.475 10.251 2.714 1.586.795 2.17 1.364 2.021 1.971-.579 2.373-3.361 5.953-8.526 10.974-3.729 3.625-6.444 5.993-10.857 9.47-1.968 1.55-3.958 3.225-4.421 3.72-1.477 1.583-1.859 3.03-1.188 4.505.429.943.955 1.292 1.947 1.292.98 0 1.664-.409 4.608-2.75 2.08-1.654 2.098-1.664 1.98-1.079-.59 2.909.111 6.596 3.44 18.091.92 3.176 1.8 6.517 1.953 7.424.284 1.669.351 4.809.12 5.613-.116.405-.198.435-1.1.405-2.604-.087-7.725-2.565-14.247-6.895-5.99-3.977-9.777-6.986-14.546-11.558-4.543-4.354-4.948-4.622-6.729-4.455-1.553.146-1.53.146-2.761.006-1.646-.188-2.18.154-6.26 4-5.183 4.885-8.306 7.418-13.813 11.2-6.808 4.677-13.154 7.822-15.782 7.822-.87 0-1.004-.36-1.004-2.693 0-2.673.365-4.38 2.563-11.99 1.908-6.607 3.075-11.532 3.323-14.023.106-1.07-.172-3.09-.564-4.105-.135-.348-.133-.348.382-.008 2.25 1.488 3.224 1.662 4.196.751a2.918 2.918 0 0 0 .807-2.96c-.33-1.124-2.155-2.8-6.063-5.568-9.221-6.532-17.273-14.006-18.95-17.59-.226-.481-.41-.965-.412-1.075-.002-.281 1.45-1.171 2.802-1.717 2.148-.867 5-1.5 9.901-2.202 8.478-1.213 13.852-2.49 15.465-3.676l.744-.547v.508c0 .871.531 2.343 1.003 2.78.596.551 1.343.54 1.911-.027.413-.412 1.967-3.5 2.991-5.943 3.336-7.959 8.925-17.245 14.71-24.443 1.67-2.078 3.158-3.47 3.71-3.47.158 0 .723.46 1.255 1.021Z" clip-rule="evenodd"/><path fill="#AF992A" fill-rule="evenodd" d="M55.789 18.144c-2.046 1.288-5.05 6.822-8.712 16.046-1.678 4.228-1.825 4.763-1.516 5.51.437 1.054 1.851 1.557 2.588.92.194-.17.764-1.252 1.267-2.406 2.371-5.446 7.065-14.089 7.647-14.082.18.002 1.301 1.81 2.031 3.277.872 1.752 3.124 7.033 4.127 9.678 1.566 4.131 2.05 4.765 3.343 4.377.994-.298 2.599-1.873 2.599-2.55 0-.932-.566-2.783-1.793-5.861-2.944-7.389-6.128-12.97-8.284-14.52-1.045-.75-2.459-.918-3.297-.39ZM28.692 44.437c-6.983.36-11.955 1.204-13.075 2.219-.612.554-.866 1.257-.746 2.062.278 1.852 3.78 5.486 9.144 9.486 3.561 2.657 4.158 2.878 5.553 2.06 1.095-.642 1.519-1.442 1.202-2.267-.058-.152-1.219-1.119-2.579-2.148-4.861-3.68-7.938-6.296-7.682-6.534.386-.359 5.724-1.232 10.096-1.65a409.13 409.13 0 0 1 2.827-.267c.253 0 .766-.874.766-1.306 0-1.05-.998-1.865-2.22-1.816-.366.014-1.845.087-3.286.161Zm55.244-.02c-.452.186-1.066.867-1.209 1.34-.148.49.144 1.224.58 1.457.192.103 1.553.307 3.024.454 4.38.436 9.807 1.313 10.153 1.64.218.206-3.835 3.644-7.129 6.048a52.938 52.938 0 0 0-2.316 1.793c-.806.678-.918.853-.918 1.426 0 .719.499 1.32 1.521 1.836 1.178.595 1.922.3 4.948-1.954 4.11-3.063 7.536-6.241 8.744-8.11.589-.913.696-1.222.696-2.008 0-.82-.068-.998-.584-1.514-1.245-1.245-5.418-1.98-13.664-2.402-3.79-.195-3.394-.194-3.846-.007ZM29.642 78.003c-1.344.408-1.772 1.279-2.955 6.01-1.72 6.883-2.283 12.31-1.437 13.881.389.723 1.065 1.161 1.905 1.237.72.064 1.055-.033 2.41-.702 1.854-.916 4.6-2.705 7.517-4.898 3.157-2.372 6.197-4.851 6.387-5.207.332-.62.2-1.724-.26-2.185-.709-.71-1.157-.566-3.474 1.114-3.673 2.663-7.323 5.022-9.391 6.07l-.867.44.002-.571c.002-.866.914-5.19 2-9.483 1.12-4.43 1.172-4.988.51-5.509-.48-.378-1.475-.461-2.347-.197ZM86.01 79.09c-.846.418-.862.778-.179 3.945 1 4.638 1.97 10.481 1.775 10.692-.12.13-2.886-2.4-6.402-5.856-2.246-2.208-3.967-3.763-4.24-3.832-.994-.249-1.857.905-1.857 2.482 0 1.066.577 1.823 3.793 4.976 5.75 5.639 9.562 8.415 11.19 8.151 1.473-.24 1.881-1.264 1.615-4.052-.301-3.159-2.552-13.393-3.383-15.383-.395-.947-1.542-1.504-2.312-1.123Z" clip-rule="evenodd"/><g fill="#241C17"><path d="M29.135 3.292c.132-.144.407-.486.611-.76.343-.457.435-.488 1.158-.38 1.134.17 1.245.237 1.622.976.287.561.34 1.022.333 2.904-.005 1.23-.07 2.318-.147 2.417-.19.247-.542 2.935-.542 4.14 0 1.68-.7 2.778-1.77 2.778-.566 0-1.62-1.094-2.088-2.166-.54-1.239-.738-3.089-.448-4.2.168-.644.218-1.4.15-2.289-.092-1.222-.061-1.401.39-2.243.27-.503.6-1.032.731-1.177ZM83.779 4.669c.236-1.451.87-2.371 1.708-2.475.313-.04.672-.083.8-.099.412-.05.903.323 1.177.897.148.31.459.917.69 1.35.599 1.118.707 1.84.432 2.874-.13.489-.243 1.715-.251 2.726-.019 2.288-.414 3.412-1.696 4.812-1.047 1.143-1.577 1.244-2.451.464l-.56-.499-.019-4.444c-.01-2.445.066-4.968.17-5.606ZM8.596 16.37c.195-.466.389-.648.747-.703 1.27-.191 3.032.051 4.165.574.193.088.705.25 1.139.358.434.109 1.498.536 2.366.95.867.413 2.05.966 2.628 1.227 2.332 1.052 2.844 1.33 3.467 1.884.494.439.651.713.651 1.136 0 .82-.442.984-2.352.873-1.74-.1-3.29-.522-5.413-1.47-.753-.337-1.818-.677-2.366-.756-.548-.08-1.209-.227-1.47-.328-.623-.241-2.418-1.435-2.418-1.609 0-.075-.272-.303-.604-.509-.754-.465-.875-.828-.54-1.628ZM99.201 19.207c.16-.126 2.176-.534 4.291-.869 1.319-.209 2.003-.184 2.846.103.739.252.817.333.925.974.134.795-.121 1.201-.98 1.557-.283.117-.513.283-.513.369 0 .086-.586.435-1.302.774-1.054.5-1.613.644-2.935.759-.899.078-1.95.276-2.335.44-1.368.58-4.18 1.004-5.837.879-1.844-.14-2.354-.4-2.278-1.165.09-.896 1.293-1.565 4.851-2.697 1.699-.541 3.17-1.046 3.267-1.124Z"/></g><g fill="#241C17"><path d="M55.698 50.548c-.852-1.686-.273-3.858 1.183-4.442.144-.058.672-.082 1.172-.053 1.726.1 2.858 1.292 2.858 3.007 0 .999-.47 1.837-1.373 2.45l-.636.431h.64c.63 0 .642.015.837.92 1.066 4.953 1.823 11.083 1.836 14.855.01 2.849-.017 3.118-.34 3.474-1.18 1.303-3.24 1.136-4.315-.349-.415-.573-.63-2.018-.874-5.862-.228-3.583-.11-10.13.202-11.238.114-.405.376-.917.582-1.136l.374-.4-.876-.438c-.67-.335-.969-.622-1.27-1.219ZM36.13 47.654c.217-.413.647-.86 1.052-1.09.82-.468 1.334-.497 1.929-.108.743.486 1.048 1.375 2.154 6.277.86 3.81 2.743 10.406 2.911 10.194.021-.027.57-1.544 1.22-3.373 1.37-3.849 2.594-6.912 3.114-7.787.838-1.41 2.383-2.625 3.337-2.625.906 0 1.426.977 1.629 3.062.099 1.018.045 1.195-1.732 5.775a1188.819 1188.819 0 0 1-2.209 5.663c-.206.515-.733 2.208-1.17 3.76-.438 1.553-1.045 3.29-1.349 3.858-1.405 2.634-3.614 2.683-5.177.116-.621-1.02-2.069-4.406-3.173-7.42-2.303-6.29-3.557-14.348-2.535-16.302Z"/><path fill-rule="evenodd" d="M66.174 48.019c-1.202.52-1.756 1.34-1.944 2.873-.281 2.302 1.042 17.202 1.774 19.977.21.792 1.146 1.643 2.09 1.896a2.783 2.783 0 0 0 3.23-1.482c.161-.34.356-.617.433-.617.078 0 .005-.807-.161-1.794-.515-3.055-.577-3.805-.315-3.81 1.019-.02 3.857-.39 4.746-.618 4.668-1.2 7.103-4.609 6.195-8.674-.872-3.906-4.494-6.727-9.964-7.764-1.84-.348-5.267-.341-6.084.013Zm8.225 6.737c-.494-.212-1.495-.538-2.226-.725-1.034-.264-1.547-.443-1.786-.261-.27.205-.19.87-.112 2.392.07 1.359.172 2.59.228 2.737.243.633 5.17-.185 5.889-.977.682-.753-.41-2.486-1.993-3.166Z" clip-rule="evenodd"/></g></svg>