<svg xmlns="http://www.w3.org/2000/svg" fill="none" viewBox="0 0 761 761"><g clip-path="url(#av)"><circle cx="380.4" cy="380" r="380" fill="#FFFCE"/><path fill="#241C17" fill-rule="evenodd" d="M296.6 218c-9.9 2.1-14 3.6-24.7 9-22.8 11.2-51.6 33-55.5 42.2-.6 1.2-4.6 5.2-9 8.9-18.4 15.2-28.4 31-64 102-35.7 70.9-48 90.7-72.3 116.2-8.4 8.8-9.7 10.5-9.7 13 0 4.4 2.4 6 9.2 5.7 7.3-.3 13.4-2.6 21-8l6.2-4.5-3.4 7.1a30.7 30.7 0 0 0-3.8 12.2c-.3 5-.2 5.2 2.4 7.3 4.4 3.8 7 2.9 23.1-8 6.6-4.4 12.3-8 12.7-8 .4 0 .6.8.3 1.9l-2.5 10.8c-1.1 4.9-2 11-2 13.5 0 4 .3 5 2.3 7 6.8 6.9 15.8 2.4 28.5-14.2 4.6-6.1 8.4-9.9 10-9.9 1 0 .8 2.6-1 9.7-1 3.6-2 9.5-2.2 13.2-.5 6.5-.4 6.8 1.7 8.5 1.3 1 2.2 2.5 2.2 3.8 0 2.9 3.9 7.3 6 7 1.4-.2 2.2-1.3 3.3-4.8a5449.9 5449.9 0 0 1 3.8-12.5 333 333 0 0 1 23.8-49c7.4-12.3 12.4-23.4 11.7-26-.7-2.8-4.3-4.2-6.7-2.7a289.3 289.3 0 0 0-22.4 35.2c-.1.1-3 .8-6.6 1.5-10.7 2-25.4-1-40.6-8.2a35.4 35.4 0 0 1-15-10.8l-6.1-6.6 6-9.3c11.1-16.9 21.1-35.4 43.6-80.6 30-60 37.8-73.6 49.8-86.2 18.7-19.6 58-42 77.7-44.1 17.5-2 54.5 11.7 79.6 29.6 7.5 5.3 17.1 14 17.1 15.4 0 1-8 0-15-1.8a311 311 0 0 1-37-13.5c-13-5.5-13.3-5.6-20.2-5.6-8.7.1-17 3-27 9.6a86.9 86.9 0 0 0-38.6 70.3c0 13.2 3 21.8 11.6 32.3 7 8.7 16.4 15 39.4 26.3a362.7 362.7 0 0 1 28.7 15.5c13 8.7 24 20.9 24 26.6 0 2.9-1.9 2.1-32-12-25.7-12-34.7-13.4-56.4-8.8-19.1 4-29.4 5.7-34.5 5.8-6.8 0-18.2-2.2-24.4-4.7-6.2-2.4-9.1-2.2-10.6 1-1.4 3 0 6 5 11.1a49.9 49.9 0 0 0 30.7 14.3c8.4 1 18.7.2 33.8-2.8 5.3-1 12.3-1.8 16.6-1.8 9.2 0 13 1.3 37 12.8 22.1 10.6 28.3 12.7 37 12.8 7.8 0 12.9-2 17-6.8 11.1-12.6 7.7-33.2-8.2-50.1-12-12.8-27-22.3-53.7-34.3-18.6-8.4-23.2-11.1-29.2-16.9a29 29 0 0 1-9.2-17.3c-1-9.1 3.2-25 9-34.9 6-10 20.4-22.5 30-25.8 4.6-1.6 5.5-1.3 19.7 4.7a286.2 286.2 0 0 0 42.8 14.6 93 93 0 0 0 14.1 1.5c7 .1 7.9.3 11.7 2.8 4.6 3 12.2 5.2 17.5 5.2 9.6 0 20.5-2.3 45-9.7 19.3-5.7 25.3-6.2 30.7-2.4a38.7 38.7 0 0 1 12.3 19.3c2.1 6.5 2.4 8.6 2.4 17.3 0 12-1.9 18.4-7.4 26-5.8 7.9-11.2 11.3-30 18.9-24.8 10-38.4 18.4-52.4 32.3-10.1 10.1-14.3 16.4-16.6 25.3a24 24 0 0 0 5.5 23.4c9.7 9.7 24.6 8.9 48.7-3a175 175 0 0 1 17-7.4c2.4-.7 11.5-2 20.2-2.6a134 134 0 0 0 31-4.4 52.5 52.5 0 0 0 34.6-35.1c1.7-6 1.6-6.2-.4-8.2-3.2-3.3-5.7-2.3-14.5 5.9a55.6 55.6 0 0 1-28 15.2c-3.4.7-13.9 1.9-23.2 2.6-22.6 1.7-28.3 3.1-44.5 11.2-11.5 5.7-22.2 9.8-23.3 8.7-.9-.9 3.5-8.1 7.7-12.7 10.4-11.3 22.9-19.1 46-29 20.6-8.7 26.3-12.1 34.6-20.5a62 62 0 0 0 18.7-47.2c0-31.2-17.1-57.6-40.2-62.2-7-1.4-15.2 0-34.3 5.6a195.5 195.5 0 0 1-36.4 8.6h-3.3l4.6-4.2c13.5-12.4 42.6-27.6 65.2-34 10-3 23-2.8 33.2.3a100.3 100.3 0 0 1 41.9 24.7c12.9 12.8 19.6 24.1 44.8 75.1a892 892 0 0 0 27 51.5 6022 6022 0 0 1 9.7 15.9c1.6 2.6 1.6 2.6-.5 7.9-3.7 9-8.8 16.6-16.2 24-5.8 6-7.9 7.4-11.7 8.7-2.5.8-7 2.5-9.9 3.7l-5.3 2.3-6.7-10.5c-10-15.7-19.4-24.3-25-22.9-1.1.3-2 1-2 1.5a34 34 0 0 0 5 6.7 158.5 158.5 0 0 1 26.4 47.2c2.8 7.2 6.3 15 7.9 17.5 2.8 4.4 6.5 8 8.4 8 1.4 0 4.6-3.6 4.6-5.2 0-.7.4-1.6.9-2 1.1-.6.4-8.6-1.4-16.7-2.3-9.8-1.6-9.8 6.7-.2 11.1 12.8 16.7 16 19.9 11.5 1.8-2.6 1.6-5-1.1-15.8l-3-11.7c-.5-2.2 0-2 5.7 3 10.7 9.4 16.6 11.1 21.4 6.3 2.3-2.3 2.5-2.9 2.2-6.8a49 49 0 0 0-4.7-13.8c-2.4-5.2-4-9.7-3.8-10 .3-.2 4.7 4 9.8 9.3s10.7 10.6 12.5 11.8c5.8 3.8 12.1 2.1 12-3.3 0-6.6-7.8-21.6-32.5-62.8a821.2 821.2 0 0 1-43.4-80.3c-19-38.5-27.5-52-42.4-67.4a162 162 0 0 1-11.7-14.1c-13.6-18.3-32.3-34.6-47-41a54.4 54.4 0 0 0-31.6-1.4c-19.5 4.6-53.9 22.4-63.8 33-5.6 6-7.6 10.3-7.1 15.5.2 2.4.5 5 .7 5.7.2 1-1.9 3.2-6.3 6.8l-6.7 5.4-2.8-2.6a23.3 23.3 0 0 1-4.4-6.4c-2.5-5.8-9.3-13.5-21-23.7a218.8 218.8 0 0 0-50.6-35.4c-10.7-5.3-10.8-5.3-18.7-5.5-4.5 0-10.2.4-13.2 1Zm26.8 17.8c9 4.4 22.9 12.4 21.7 12.4a151.2 151.2 0 0 0-31.3-10.4 95 95 0 0 0-16.3-1.5l-10.1-.1 4.3-1.5a57.8 57.8 0 0 1 19.7-3.4c2.1.2 7.2 2 12 4.5Zm194.2 2.5a78.3 78.3 0 0 1 19.7 13.1l3.7 3.4-9-2.9a88.3 88.3 0 0 0-25.4-5.3c-13.8 0-37.6 7-57.9 17-6.8 3.4-12.7 6.2-13 6.2-.2 0-.2-.7 0-1.6 1.7-6.3 33.7-23.4 54.8-29.2 13.1-3.6 19-3.7 27.1-.7Zm-101 72a.8.8 0 0 1-1.1 0c-.3-.4 0-.6.5-.6.6 0 .9.2.6.5ZM653.3 479c.7 2.5 2 6 2.9 7.8l1.7 3.3-2.8-2.4a142 142 0 0 1-7.2-6.4l-4.5-4 3.6-4.2 3.6-4.3.7 2.8 2 7.4Zm-20.5 11c0 2.4.4 4.6 3 13.9.4 1.6-1 .5-6.5-4.6l-7-6.6 4.6-2.6a37 37 0 0 1 5.2-2.7c.4 0 .7 1 .7 2.6Zm-20.3 8.7c-.3 1.2 0 4.3.7 6.8l1 4.8c-.2.2-2.8-5.9-5.3-12-.3-.8 1-1.5 3.4-1.8.4 0 .4 1 .2 2.2Zm-491.5 4-6.4 4.3-6.7 4.3 2.6-5c1.4-2.8 2.9-6 3.3-7.2l.8-2.1 3.1 2.8 3.3 2.9Zm495 11.6c0 .5-.3.3-.8-.4a5 5 0 0 1-.8-2c0-.5.4-.3.8.4.5.7.8 1.6.8 2Zm-468 2.1c1.2.5 2.2 1 2.2 1.2 0 .6-10.3 13-10.5 12.7a34 34 0 0 1 1-5.2 49 49 0 0 0 1.2-7.7c0-3 .6-3.1 6.2-1Zm469-.4a.4.4 0 1 1-.9 0 .4.4 0 0 1 .9 0Zm.8 2.5a.4.4 0 0 1-.8 0 .4.4 0 0 1 .8 0Z" clip-rule="evenodd"/><path fill="#FFE019" fill-rule="evenodd" d="M319.6 321.2a41.6 41.6 0 0 0-26.8 20.5c-2.2 4.2-2.4 5.1-2.4 14 0 9 .2 10 2.5 15.3 3.2 7 10.1 15.2 17.1 20 3 2 12.3 7.5 20.8 12.3a219 219 0 0 1 36.5 23.6 55 55 0 0 0 13 8.5c5.7 1 10.4-4 9.3-10-1.7-8.6-16.6-20.5-47-37.5-18.8-10.4-20.7-11.7-25-15.8-12.7-12-9.2-27.6 7.2-31.8 9-2.3 17.4 0 27.4 7.4a61.9 61.9 0 0 1 16.7 20.4c3.4 5.8 5.4 8.2 7.2 9 3.5 1.4 6.8.6 9.3-2.4 2-2.4 2.2-3 1.7-7.4a48.5 48.5 0 0 0-17-30 65.4 65.4 0 0 0-23.5-14.9c-7-2.4-20-3-27-1.2Zm116.2 22.5a75.4 75.4 0 0 0-27.5 14.2c-6.3 5.9-10.6 13.8-9.7 18.2.7 3.6 4 6.3 7.6 6.3 2.9 0 4.1-.8 14-9.7a50 50 0 0 1 21.7-11.1c16-3.3 31 6.7 23.4 15.6-3.4 4-9.3 6.6-27.5 11.9-34.6 10-48.3 16.6-50 24.2-1 5 3 10 8.1 10 1 0 4-1 6.5-2 16.9-7.3 23.2-9.6 39.7-14.4 10.2-3 20.3-6 22.4-7 5.4-2.3 17-10 16.5-11-.3-.4 0-1.4.7-2.1 2.4-2.7 4.9-8.7 5.3-12.6.7-5.2-1.4-12.3-5-17a44 44 0 0 0-18-12.2c-7-2.4-20.5-3-28.1-1.3Z" clip-rule="evenodd"/><path fill="#241C17" d="M506.8 101.3c2.4-1 4.9-2.2 5.5-2.6.7-.3 2.4-.7 3.9-.7 5.5-.1 5.9 7.3.8 15a64 64 0 0 1-11 14.4 98.6 98.6 0 0 0-9 10c-7 8.7-9.2 10.4-12.9 10.4-1.9 0-2.8-.6-3.4-2-2.3-5 4.6-22.3 11.3-28.8 1.7-1.6 3.6-4.2 4.3-5.8 1.7-4.1 5.5-7.7 10.5-9.9Zm-205.9 15.6c-1.6-3-1.4-4.5.7-6.5 6.2-5.7 19 4 32.9 24.8 4.3 6.5 8.4 13.4 9 15.3 1.1 3.1 1 3.6-.4 5.5-.9 1.2-2.3 2.3-3.1 2.4-2.3.3-10.7-6.1-16.6-12.6l-11.7-12.4A40.6 40.6 0 0 1 301 117Z"/></g></svg>